<svg width="138" height="71" viewBox="0 0 138 71" fill="none" xmlns="http://www.w3.org/2000/svg">
<path d="M41.9068 54.1C32.2068 50.55 41.5068 20.8 41.3068 19.05C41.0568 16.65 37.5068 15.8 36.7568 16.85C35.2568 18.9 32.4068 27.75 30.9068 37.15C28.7568 36.1 25.3568 35.4 22.6068 35.3C23.4568 31.85 24.3068 28.65 25.2068 26.2L25.3568 26.35C25.3568 26.35 25.4568 25.8 25.7068 25.05C26.5568 23.15 27.4568 21.85 28.5068 21.4C28.8568 21.4 29.1568 21.35 29.4068 21.25C29.4568 21.25 29.5068 21.2 29.5068 21.2C32.2568 20 32.8568 14.3 28.5068 14.3C26.3068 14.3 24.7068 15.4 23.6068 16.75C18.6068 16 13.0068 13.05 7.65684 14.95C-0.343164 17.8 -3.89316 31.7 7.60684 31.7C15.5568 30.7 11.8068 29.9 11.1068 29.05C9.55684 27.15 9.80684 20.9 16.5068 20.9C18.4068 20.9 20.0068 21.1 21.4068 21.3C21.3068 21.6 21.2568 21.85 21.2568 21.95C16.5568 30.05 15.5568 50.1 7.90684 53C4.00684 54.45 2.50684 49.35 2.15684 50.5C0.256836 57.2 4.05684 62.65 9.45684 62.65C15.5068 62.65 18.6068 51.75 21.1568 41.2C23.9568 41.8 27.5568 42.8 30.1068 44.3C29.4568 54.25 31.1068 63 38.4068 63C43.8568 63 46.1568 57.9 46.1568 54.45C46.1568 53.2 44.6068 55.1 41.9068 54.1ZM62.7131 32.6C60.5631 33.25 57.0131 33.7 53.6131 32.3C53.2131 31.7 52.7131 31.2 52.1631 30.75C51.4131 29.35 49.8131 27.3 47.2131 29.05C42.7631 29.3 39.0631 33.85 38.8631 39.55C38.6131 45.55 42.2631 50.6 47.0131 50.75C51.7131 50.95 55.7631 46.25 56.0131 40.25C56.0131 39.75 56.0131 39.3 55.9631 38.8C57.9131 39 59.8631 38.8 61.3131 37.95C61.9631 37.6 64.1131 32.2 62.7131 32.6ZM52.3631 38.6C52.2631 41.8 50.2131 44.3 47.8131 44.2C45.4131 44.1 43.6131 41.45 43.7131 38.25C43.8131 35.85 45.0131 33.8 46.6131 33.05C47.1631 34.4 48.2131 35.65 48.9631 36.3C49.7631 36.95 50.9631 37.6 52.3631 38.05C52.3631 38.25 52.3631 38.4 52.3631 38.6Z" fill="black"/>
<path d="M119.951 39.3C119.951 39.3 119.501 36.9 119.201 35.35C117.601 36.9 115.801 38.35 114.301 39.5C114.001 37.65 113.351 36.05 112.551 35.25C111.701 34.4 109.801 31.35 109.801 31.35C109.801 31.35 112.901 24 109.801 24C107.451 24 103.901 26.35 104.551 29.95C103.101 32.25 100.851 35.8 99.4012 37.75C99.1012 38.2 100.651 41.75 101.351 41.05C101.401 41.05 101.401 41.05 101.401 41.05C100.701 43.05 101.701 49.15 107.501 49.15C109.051 49.15 110.301 48.8 111.301 48.2C116.301 46.7 119.951 39.3 119.951 39.3ZM102.351 40.65C102.251 40.55 102.151 40.45 102.051 40.45C104.351 38.2 105.751 35.75 106.601 33.85C110.251 38.95 106.251 44.5 102.351 40.65ZM109.951 25.35L108.851 29.5C107.801 26.95 109.951 25.35 109.951 25.35ZM133.943 28C133.843 26.1 129.543 24.8 129.643 26.75C129.793 28.45 129.893 30.65 129.943 33.05C128.343 36.95 125.593 41.25 123.593 40.15C120.943 38.65 123.143 33.9 123.143 31.3C123.143 27.35 117.843 27.45 117.843 29.15C117.843 34.95 113.643 48.5 120.743 48.5C124.843 48.5 127.543 45.85 129.343 42.55C128.543 47.65 126.843 52.2 123.343 54.05C118.743 56.45 115.793 54.3 115.793 52.6C115.743 52.05 115.693 51 114.793 51.8C111.843 54.5 112.643 63.9 121.993 63.25C138.143 62.1 134.093 29.9 133.943 28Z" fill="black"/>
<g clip-path="url(#clip0)">
<path d="M102.25 42.5C102.123 42.4995 102.002 42.4457 101.917 42.3517C101.843 42.2735 101.806 42.1672 101.816 42.06C101.874 41.4554 101.797 40.8454 101.591 40.2742C101.312 39.5091 100.817 38.8412 100.167 38.3517V25.4L100.96 26.1025C101.653 26.7154 102.711 26.6536 103.327 25.9642L105.577 23.445C105.874 23.1129 106.026 22.6765 105.999 22.2322C105.973 21.7879 105.771 21.3724 105.437 21.0775L98.5 14.935V4.76832C99.0139 4.47298 99.3315 3.9261 99.3333 3.33332V1.66665C99.3333 0.746179 98.5871 -1.33166e-05 97.6666 -1.33166e-05H91C90.0795 -1.33166e-05 89.3333 0.746179 89.3333 1.66665V3.33332C89.3351 3.9261 89.6527 4.47298 90.1666 4.76832V7.55499L82.1142 0.422487C81.4782 -0.140992 80.5217 -0.140992 79.8858 0.422487L76.5733 3.35666C74.2421 3.02345 71.8777 3.67966 70.0517 5.16666L69.9142 5.28166C69.7535 5.43367 69.5739 5.56446 69.38 5.67082C69.1264 5.73644 68.8633 5.75759 68.6025 5.73332C68.3451 5.72427 68.0873 5.7315 67.8308 5.75499C66.6111 5.94239 65.5462 6.68229 64.945 7.75999C64.5468 8.4523 64.27 9.20765 64.1267 9.99333C63.1348 10.0218 62.208 10.4937 61.6017 11.2792C60.9058 12.2353 60.5966 13.419 60.7358 14.5933C60.82 15.3837 61.0005 16.1609 61.2733 16.9075L56.5658 21.0742C56.2315 21.3693 56.0286 21.7855 56.0022 22.2307C55.9757 22.6759 56.1279 23.1132 56.425 23.4458L58.675 25.9642C59.2915 26.6539 60.3494 26.716 61.0425 26.1033L61.8333 25.4008V38.3517C61.1834 38.8416 60.6893 39.5094 60.4108 40.2742C60.2044 40.8449 60.1276 41.4543 60.1858 42.0583C60.196 42.1661 60.1593 42.273 60.085 42.3517C59.9992 42.4461 59.8776 42.5 59.75 42.5C57.6799 42.5023 56.0023 44.1799 56 46.25V46.6667C56 48.5076 57.4924 50 59.3333 50H102.667C104.508 50 106 48.5076 106 46.6667V46.25C105.998 44.1799 104.32 42.5023 102.25 42.5ZM91 1.66665H97.6666V3.33332H91V1.66665ZM91.8333 4.99999H96.8333V13.4592L91.8333 9.03083V4.99999ZM62.3967 14.4533C62.2951 13.6958 62.4806 12.9277 62.9167 12.3C63.2834 11.7964 63.9189 11.5657 64.5233 11.7167C64.7584 11.8019 65.0194 11.7771 65.2342 11.649C65.4489 11.5209 65.5949 11.3032 65.6317 11.0558C65.7186 10.2028 65.9702 9.37472 66.3725 8.61749C66.7066 7.98417 67.3131 7.53933 68.0175 7.41082C68.2012 7.39441 68.3858 7.39051 68.57 7.39916C69.0517 7.43497 69.5357 7.37376 69.9933 7.21916C70.3578 7.05072 70.6933 6.82572 70.9875 6.55249L71.1142 6.44666C72.1526 5.60907 73.415 5.0963 74.7433 4.97249L62.64 15.6967C62.5186 15.2911 62.4371 14.8747 62.3967 14.4533ZM59.9167 24.8542L57.6667 22.325L81.0091 1.66665L104.333 22.3333L102.083 24.8517C102.078 24.8563 102.07 24.8563 102.064 24.8517L82.1142 7.18499C81.4785 6.6199 80.5206 6.6199 79.885 7.18499L59.9167 24.8542ZM63.5 23.9258L81.0091 8.43333L98.5 23.9242V37.5908C98.46 37.5825 98.4216 37.5692 98.3816 37.5625C96.4815 37.2349 94.6042 38.2509 93.8391 40.0208C92.2021 39.8565 90.6889 40.9083 90.2725 42.5H89.3333C89.0534 42.4997 88.7743 42.5277 88.5 42.5833V35C88.5 30.8579 85.1421 27.5 81 27.5C76.8578 27.5 73.5 30.8579 73.5 35V42.5833C73.2257 42.5277 72.9465 42.4997 72.6667 42.5H71.7275C71.3136 40.9062 69.7991 39.8524 68.1608 40.0183C67.3984 38.2461 65.519 37.229 63.6183 37.56C63.5783 37.5667 63.54 37.58 63.5 37.5883V23.9258ZM85.1667 46.6667V48.3334H81.8333V36.6667C81.8333 36.2064 81.4602 35.8333 81 35.8333C80.5397 35.8333 80.1667 36.2064 80.1667 36.6667V48.3334H76.8333V46.6667C76.8295 45.3621 76.2121 44.1353 75.1667 43.355V35C75.1722 32.1037 77.3003 29.6492 80.1667 29.2333V32.5C80.1667 32.9602 80.5397 33.3333 81 33.3333C81.4602 33.3333 81.8333 32.9602 81.8333 32.5V29.2333C84.6997 29.6492 86.8278 32.1037 86.8333 35V43.355C85.7878 44.1353 85.1705 45.3621 85.1667 46.6667ZM74.3333 48.3334H59.3333C58.4129 48.3334 57.6667 47.5872 57.6667 46.6667V46.25C57.6667 45.0994 58.5994 44.1667 59.75 44.1667C60.3478 44.1661 60.9177 43.9138 61.32 43.4717C61.7093 43.0435 61.8999 42.4711 61.845 41.895C61.8109 41.5354 61.8576 41.1726 61.9817 40.8333C62.282 39.9876 63.0107 39.3662 63.8933 39.2033C64.0351 39.1793 64.1787 39.167 64.3225 39.1667C65.5162 39.1622 66.5465 40.0023 66.7825 41.1725C66.831 41.4129 66.9829 41.6197 67.1977 41.7378C67.4125 41.856 67.6685 41.8736 67.8975 41.7859C68.409 41.5723 68.9938 41.6318 69.4518 41.9442C69.9097 42.2565 70.1787 42.7792 70.1667 43.3334C70.1667 43.7936 70.5398 44.1667 71 44.1667H72.6667C74.0474 44.1667 75.1667 45.286 75.1667 46.6667V48.3334H74.3333ZM104.333 46.6667C104.333 47.5872 103.587 48.3334 102.667 48.3334H86.8333V46.6667C86.8333 45.286 87.9526 44.1667 89.3333 44.1667H91C91.4602 44.1667 91.8333 43.7936 91.8333 43.3334C91.8211 42.7792 92.0901 42.2564 92.5482 41.9442C93.0062 41.632 93.5911 41.5727 94.1025 41.7867C94.3314 41.8744 94.5874 41.8568 94.8023 41.7387C95.0171 41.6205 95.169 41.4137 95.2175 41.1733C95.4358 40.0698 96.3659 39.249 97.488 39.1695C98.6102 39.09 99.6466 39.7716 100.018 40.8333C100.142 41.1735 100.189 41.537 100.155 41.8975C100.1 42.473 100.291 43.0448 100.68 43.4725C101.082 43.9143 101.652 44.1663 102.25 44.1667C103.401 44.1667 104.333 45.0994 104.333 46.25V46.6667Z" fill="black"/>
<path d="M81 24.1667C83.7614 24.1667 86 21.9281 86 19.1667C86 16.4052 83.7614 14.1667 81 14.1667C78.2386 14.1667 76 16.4052 76 19.1667C76.0028 21.9269 78.2397 24.1639 81 24.1667ZM84.3333 19.1667C84.3276 20.682 83.3006 22.0028 81.8333 22.3817V15.9517C83.3006 16.3305 84.3276 17.6513 84.3333 19.1667ZM80.1667 15.9517V22.3817C78.6965 22.0075 77.6674 20.6837 77.6674 19.1667C77.6674 17.6496 78.6965 16.3258 80.1667 15.9517Z" fill="black"/>
<path d="M66 29.1667C65.5398 29.1667 65.1667 29.5398 65.1667 30C65.1667 30.4602 65.5398 30.8333 66 30.8333H66.8334V33.3333C66.8334 33.7936 67.2064 34.1667 67.6667 34.1667C68.1269 34.1667 68.5 33.7936 68.5 33.3333V30.8333H72.6667C73.1269 30.8333 73.5 30.4602 73.5 30C73.5 29.5398 73.1269 29.1667 72.6667 29.1667H71V26.6667H73.5C73.9603 26.6667 74.3334 26.2936 74.3334 25.8333C74.3334 25.3731 73.9603 25 73.5 25H66C65.5398 25 65.1667 25.3731 65.1667 25.8333C65.1667 26.2936 65.5398 26.6667 66 26.6667H69.3334V29.1667H66Z" fill="black"/>
<path d="M88.5 26.6667H91V29.1667H89.3334C88.8731 29.1667 88.5 29.5398 88.5 30C88.5 30.4602 88.8731 30.8333 89.3334 30.8333H93.5V33.3333C93.5 33.7936 93.8731 34.1667 94.3334 34.1667C94.7936 34.1667 95.1667 33.7936 95.1667 33.3333V30.8333H96C96.4603 30.8333 96.8334 30.4602 96.8334 30C96.8334 29.5398 96.4603 29.1667 96 29.1667H92.6667V26.6667H96C96.4603 26.6667 96.8334 26.2936 96.8334 25.8333C96.8334 25.3731 96.4603 25 96 25H88.5C88.0398 25 87.6667 25.3731 87.6667 25.8333C87.6667 26.2936 88.0398 26.6667 88.5 26.6667Z" fill="black"/>
</g>
<defs>
<clipPath id="clip0">
<rect width="50" height="50" fill="white" transform="translate(56)"/>
</clipPath>
</defs>
</svg>
